# xmcd
#
# Track frame offsets:
#	182
#	13515
#	28885
#	42920
#	56245
#	71765
#	90735
#	100020
#	120322
#	131790
#	147427
#	165490
#
# Disc length: 2384 seconds
#
# Revision: 3
# Processed by: cddbd v1.5.2PL0 Copyright (c) Steve Scherf et al.
# Submitted via: audiograbber 1.83.01
#
DISCID=a5094e0c
DTITLE=The Desert Rose Band - A Dozen Roses - Greatest Hits
DYEAR=1991
DGENRE=Country
TTITLE0=Love Reunited
TTITLE1=One Step Forward
TTITLE2=He's Back And I'm Blue
TTITLE3=She Don't Love Nobody
TTITLE4=Summer Wind
TTITLE5=I Still Believe In You
TTITLE6=Hello Trouble
TTITLE7=Start All Over Again
TTITLE8=Story Of Love
TTITLE9=Will This Be The Day
TTITLE10=Come A Little Closer
TTITLE11=Price I Pay (With Emmylou Harris)
EXTD=
EXTT0=
EXTT1=
EXTT2=
EXTT3=
EXTT4=
EXTT5=
EXTT6=
EXTT7=
EXTT8=
EXTT9=
EXTT10=
EXTT11=
PLAYORDER=
